<?xml version="1.0" standalone="no"?>
<!DOCTYPE svg PUBLIC "-//W3C//DTD SVG 20010904//EN"
 "http://www.w3.org/TR/2001/REC-SVG-20010904/DTD/svg10.dtd">
<svg version="1.0" xmlns="http://www.w3.org/2000/svg"
 width="513.000000pt" height="513.000000pt" viewBox="0 0 513.000000 513.000000"
 preserveAspectRatio="xMidYMid meet">

<g transform="translate(0.000000,513.000000) scale(0.100000,-0.100000)"
fill="#000000" stroke="none">
<path d="M2610 4481 c0 -6 -13 -11 -29 -11 -17 0 -33 -4 -36 -10 -9 -15 -48
-13 -40 3 4 6 -2 1 -14 -13 -19 -24 -20 -25 -34 -6 -14 19 -15 19 -30 -10
l-15 -29 -11 28 c-13 35 -20 34 -32 -3 -11 -31 -39 -42 -39 -14 0 9 5 12 12 8
7 -4 8 -3 4 4 -11 18 -53 14 -60 -4 -4 -10 -12 -14 -22 -10 -12 4 -15 2 -11
-9 4 -8 2 -17 -4 -20 -5 -4 -12 1 -15 9 -9 23 -20 20 -29 -6 -6 -20 -8 -20
-12 -5 -5 21 -43 23 -43 2 0 -8 -4 -15 -10 -15 -5 0 -7 -8 -4 -17 5 -17 5 -17
-9 0 -16 19 -37 23 -37 6 0 -7 -10 -9 -25 -5 -19 5 -23 3 -19 -9 4 -10 0 -15
-15 -15 -15 0 -19 -4 -14 -17 5 -12 2 -15 -9 -11 -19 8 -77 -20 -74 -35 2 -7
1 -9 -1 -4 -3 4 -12 7 -20 7 -11 0 -14 -7 -9 -25 4 -14 2 -25 -4 -25 -5 0 -10
6 -10 14 0 8 -10 14 -25 14 -23 0 -24 -2 -8 -13 10 -8 15 -17 11 -21 -4 -4
-15 -1 -25 7 -15 12 -16 12 -10 -5 6 -14 4 -17 -8 -12 -31 11 -105 -52 -112
-95 -5 -32 -10 -35 -33 -14 -19 18 -20 17 -20 -3 0 -25 -15 -29 -24 -7 -6 16
-26 21 -26 6 0 -4 11 -20 25 -35 24 -26 21 -37 -4 -13 -11 10 -14 10 -18 0 -3
-7 -11 -13 -19 -13 -8 0 -14 -9 -14 -21 0 -25 -31 -60 -38 -41 -5 15 -34 16
-50 0 -17 -17 -15 -29 3 -22 11 5 13 2 9 -10 -5 -12 -10 -13 -27 -5 -17 10
-19 9 -14 -5 4 -10 1 -16 -8 -16 -8 0 -15 -7 -15 -16 0 -12 -7 -14 -29 -9 -27
6 -30 4 -27 -19 1 -14 8 -32 16 -40 7 -10 8 -16 2 -16 -6 0 -14 5 -17 10 -12
20 -35 10 -35 -15 0 -19 -4 -23 -17 -18 -12 5 -15 2 -10 -10 4 -11 1 -17 -7
-17 -8 0 -24 -8 -36 -18 l-23 -19 24 -17 24 -16 -22 -6 c-23 -6 -32 -24 -12
-24 5 0 7 -5 4 -11 -4 -6 -13 -8 -21 -5 -22 9 -42 -3 -48 -30 -4 -13 -13 -24
-21 -24 -18 0 -19 -9 -2 -32 10 -13 23 -15 55 -11 34 5 40 8 31 19 -8 10 -8
14 0 14 6 0 11 14 11 30 0 19 5 31 15 32 8 0 21 1 28 2 6 1 16 7 20 14 4 6 14
12 22 12 8 0 11 7 8 20 -4 14 0 20 11 20 10 0 16 8 16 21 0 12 8 23 19 26 11
3 22 16 25 29 7 28 22 30 47 8 21 -19 60 -11 41 8 -19 19 -14 28 13 28 14 0
25 5 25 10 0 6 11 8 26 4 18 -5 31 -1 48 15 17 16 31 20 60 17 20 -3 42 -8 48
-12 7 -4 8 -3 4 4 -10 17 10 15 46 -4 21 -11 43 -14 69 -10 21 3 40 2 44 -4 3
-5 15 -10 26 -10 10 0 19 -4 19 -10 0 -5 7 -10 15 -10 9 0 15 9 15 22 0 22 0
22 14 3 13 -19 37 -85 42 -114 2 -8 16 -32 31 -55 16 -23 35 -61 42 -86 7 -25
17 -50 23 -57 5 -7 7 -17 4 -22 -4 -6 6 -34 20 -63 45 -88 54 -109 54 -123 0
-7 10 -19 22 -27 l22 -15 -23 -48 c-12 -26 -20 -54 -17 -61 3 -8 2 -14 -3 -14
-8 0 -23 -27 -42 -75 -7 -17 -11 -70 -10 -123 2 -87 -11 -152 -31 -152 -4 0
-14 -13 -22 -29 -12 -22 -12 -31 -3 -40 9 -10 8 -15 -7 -26 -21 -16 -14 -32
22 -48 l27 -11 -32 -4 -32 -3 22 -22 c12 -12 31 -20 44 -19 18 3 23 -2 23 -18
0 -18 3 -19 21 -9 15 8 24 8 32 0 6 -6 19 -11 29 -11 10 0 21 -7 24 -15 4 -8
16 -15 28 -15 17 0 18 2 6 10 -16 10 -15 11 39 15 26 2 35 -1 38 -16 4 -15 11
-18 27 -13 18 6 19 5 8 -9 -16 -19 -6 -63 16 -73 10 -4 39 -9 65 -11 52 -5 82
10 72 35 -4 11 -1 12 12 6 32 -14 95 -7 106 12 9 16 11 16 23 -1 14 -19 54
-29 54 -13 0 4 7 8 15 8 18 0 20 -17 3 -23 -10 -4 -10 -7 0 -18 10 -11 12 -10
12 4 0 9 5 17 10 17 6 0 10 7 10 15 0 8 4 15 9 15 16 0 31 -27 25 -43 -5 -14
-1 -15 25 -7 18 5 63 6 101 3 61 -5 70 -4 70 11 0 9 8 16 20 16 23 0 26 10 8
28 -22 22 1 24 29 3 30 -24 69 -22 90 6 7 8 19 13 28 10 8 -4 15 -2 15 3 0 6
9 10 19 10 11 0 22 4 26 9 7 13 94 71 104 71 5 0 17 12 27 27 9 15 34 43 55
61 36 32 57 72 38 72 -5 0 -9 11 -9 23 0 28 -23 79 -56 124 -13 17 -24 38 -24
47 0 8 -4 18 -10 21 -5 3 -10 16 -10 29 0 12 -4 26 -8 31 -5 6 -15 30 -22 55
-17 57 -52 120 -107 192 -45 59 -50 76 -32 109 13 26 22 141 10 148 -8 5 -24
168 -25 246 0 30 18 59 62 98 12 11 22 27 22 35 0 12 3 12 16 1 14 -11 18 -11
28 3 6 9 28 23 49 31 20 9 37 23 37 31 0 8 5 18 12 22 6 4 8 3 4 -4 -15 -25
19 -23 41 2 18 21 23 23 23 10 0 -15 4 -14 26 6 21 21 27 22 34 10 5 -8 10
-18 10 -21 0 -15 50 5 50 20 0 9 9 1 22 -19 12 -19 23 -37 25 -39 1 -2 12 4
23 14 11 10 20 13 20 7 0 -7 11 -12 25 -12 28 0 29 -3 15 -30 -8 -15 -6 -20
10 -25 11 -3 24 -4 30 0 6 4 7 -1 3 -11 -5 -12 -3 -15 6 -9 8 4 17 2 21 -6 7
-10 11 -10 24 1 24 19 30 5 11 -24 -17 -25 -17 -26 3 -26 12 0 24 5 27 10 3 6
14 10 22 10 13 0 12 -5 -7 -22 -18 -17 -20 -23 -9 -27 8 -3 14 -13 14 -21 0
-9 7 -14 20 -12 47 8 58 6 63 -7 2 -8 0 -11 -5 -8 -5 3 -8 -6 -5 -24 2 -16 9
-29 14 -29 13 0 38 -26 38 -39 0 -6 7 -8 15 -5 10 4 15 0 15 -13 0 -10 6 -27
13 -38 7 -11 14 -31 15 -44 0 -13 7 -28 13 -32 10 -6 10 -11 0 -22 -10 -13 -8
-16 8 -22 12 -3 25 -4 30 0 6 3 8 -8 4 -29 -4 -29 -1 -37 21 -51 14 -10 26
-25 26 -35 0 -10 7 -26 16 -34 14 -15 14 -17 0 -22 -26 -10 -18 -23 20 -30 25
-5 38 -14 45 -31 5 -14 20 -34 33 -46 21 -19 22 -23 8 -33 -10 -7 -16 -28 -17
-52 -1 -39 0 -41 24 -36 24 5 23 2 -13 -29 -32 -28 -36 -35 -21 -41 9 -3 21
-4 26 0 5 3 9 -1 9 -8 1 -7 12 -22 25 -33 21 -17 22 -20 7 -32 -16 -11 -15
-12 3 -13 17 -1 16 -3 -7 -16 -37 -19 -35 -25 5 -18 l32 5 -30 -18 c-29 -17
-29 -18 -7 -21 l23 -3 -26 -20 c-28 -23 -32 -39 -10 -39 17 0 20 -26 4 -35 -6
-4 -8 -13 -5 -20 2 -7 -13 -25 -35 -41 -46 -34 -51 -51 -9 -29 34 18 41 7 9
-15 -12 -8 -34 -25 -48 -37 -26 -22 -26 -22 -3 -23 12 0 22 4 22 9 0 9 61 51
74 51 4 0 6 -8 5 -17 -4 -45 2 -65 21 -70 23 -6 25 -14 8 -32 -11 -11 -8 -13
17 -8 l29 5 -34 -29 c-29 -23 -31 -27 -12 -22 12 3 25 9 28 14 3 5 11 9 17 9
7 0 -2 -12 -19 -28 -40 -35 -50 -62 -24 -62 25 0 26 -16 3 -29 -10 -6 -13 -10
-8 -10 6 0 19 6 29 14 11 8 29 15 40 14 18 -1 18 -2 -4 -9 -14 -4 -18 -9 -10
-9 12 -1 11 -5 -4 -16 -12 -9 -14 -15 -7 -15 7 0 24 9 38 20 29 23 51 27 36 8
-5 -7 -6 -24 -2 -38 4 -14 7 -18 8 -9 1 9 8 20 17 23 24 9 26 8 16 -10 -5 -9
-7 -25 -4 -36 3 -13 0 -17 -10 -13 -10 4 -17 -1 -21 -15 -4 -17 -2 -20 13 -15
26 8 35 -13 16 -34 -23 -25 -10 -54 20 -48 27 5 30 -3 12 -22 -11 -10 -10 -11
5 -5 20 7 16 -10 -15 -61 -24 -41 -23 -50 6 -32 13 9 26 13 29 10 7 -6 -74
-69 -109 -85 -13 -6 -24 -14 -25 -17 0 -3 -2 -14 -4 -24 -3 -14 1 -18 16 -14
22 6 25 -3 7 -22 -11 -11 -8 -13 15 -9 36 7 34 2 -10 -21 -21 -10 -49 -31 -62
-45 -20 -21 -22 -28 -11 -41 7 -8 19 -15 26 -15 13 0 18 -15 17 -47 -1 -7 1
-13 3 -13 10 0 54 24 54 30 0 4 7 7 15 7 13 0 13 -2 0 -17 -23 -26 -18 -34 11
-15 14 9 28 14 32 11 3 -4 15 3 26 13 19 18 76 36 76 25 0 -3 -5 -14 -10 -24
-15 -29 6 -34 39 -11 16 12 34 21 39 21 5 0 17 11 26 25 15 23 15 26 1 31 -8
3 -15 12 -15 20 0 9 -9 12 -27 10 -16 -2 -20 -1 -10 1 11 3 16 10 13 19 -4 9
3 18 17 24 17 7 18 9 5 9 -21 1 -24 17 -6 24 7 3 2 6 -12 7 l-25 1 25 14 c19
11 21 14 8 15 -20 0 -24 15 -8 25 6 4 8 11 5 16 -4 5 -1 9 4 9 24 0 9 18 -20
24 -17 3 -28 10 -24 16 3 5 1 10 -5 10 -6 0 -8 5 -4 11 11 19 14 79 3 79 -10
0 -6 41 7 61 3 6 1 15 -6 19 -9 5 -9 17 -2 44 6 21 7 36 1 36 -5 0 -9 7 -9 15
0 8 -7 15 -16 15 -13 0 -14 3 -4 15 13 15 5 55 -14 67 -8 5 -8 10 1 19 8 8 8
19 -3 44 -8 19 -16 55 -20 82 -3 26 -10 50 -15 54 -5 3 -7 13 -3 22 3 9 1 17
-4 17 -6 0 -9 9 -7 20 2 11 -1 22 -6 25 -5 4 -7 10 -4 15 3 5 -5 12 -17 16
l-23 7 25 10 c22 9 23 11 6 15 -27 6 -49 29 -36 37 12 8 13 55 1 55 -18 0 -21
45 -4 58 15 11 15 12 -6 12 -13 0 -19 4 -16 10 4 6 2 16 -3 23 -11 13 -12 17
-12 42 0 8 -8 15 -17 15 -17 1 -17 1 -1 14 10 7 15 16 12 19 -3 3 -2 12 2 19
15 23 14 46 -2 52 -9 3 -20 4 -25 0 -5 -3 -9 0 -9 5 0 6 5 11 10 11 13 0 13
37 -1 45 -6 4 -8 14 -5 22 4 9 1 22 -5 30 -7 7 -9 16 -6 19 3 4 -1 13 -9 21
-8 8 -12 18 -9 22 2 5 -7 6 -20 3 -24 -4 -25 -4 -11 23 16 31 4 75 -21 75 -7
0 -13 7 -13 15 0 8 -7 15 -16 15 -8 0 -13 4 -10 9 3 5 -1 11 -9 15 -8 3 -15
14 -15 25 0 11 -5 23 -10 26 -6 4 -8 11 -4 16 3 6 -3 13 -15 16 -12 3 -21 12
-21 19 0 8 -5 14 -11 14 -6 0 -8 8 -4 19 5 15 -1 22 -30 31 -30 10 -34 14 -25
31 8 15 7 19 -5 19 -8 0 -15 9 -15 20 0 11 -5 20 -10 20 -6 0 -16 11 -22 25
-6 14 -20 25 -31 25 -16 0 -18 5 -13 26 6 23 4 25 -15 19 -19 -6 -21 -4 -16
14 4 17 1 21 -20 21 -14 0 -22 4 -18 10 8 13 -14 42 -26 34 -16 -10 -69 20
-69 38 0 10 -6 18 -14 18 -20 0 -96 42 -96 53 0 5 -7 3 -16 -4 -15 -12 -16
-11 -10 9 5 13 3 22 -3 22 -6 0 -11 7 -11 15 0 9 -9 15 -24 15 -14 0 -31 7
-40 15 -8 8 -22 15 -30 15 -9 0 -16 7 -16 15 0 8 -5 15 -11 15 -14 0 -39 25
-39 39 0 6 -11 11 -24 11 -12 0 -35 11 -50 25 -15 14 -31 25 -37 25 -5 0 -9 7
-9 15 0 10 -10 15 -29 15 -17 0 -31 6 -35 16 -4 10 -13 13 -26 9 -13 -4 -30 1
-46 14 -15 12 -31 21 -37 21 -6 0 -18 7 -27 15 -20 18 -140 56 -140 44 0 -5
-4 -9 -10 -9 -5 0 -10 7 -10 15 0 18 -26 20 -36 4 -5 -8 -10 -6 -16 5 -8 14
-13 15 -24 5 -11 -9 -18 -9 -25 -2 -7 7 -22 8 -42 2 -33 -9 -50 -3 -28 10 19
12 -14 23 -46 15 -15 -4 -28 -2 -32 5 -9 14 -119 33 -146 25 -11 -4 -23 -12
-27 -18 -6 -8 -10 -7 -16 2 -11 17 -112 29 -112 13z m1223 -508 c-7 -2 -19 -2
-25 0 -7 3 -2 5 12 5 14 0 19 -2 13 -5z m-2408 -123 c3 -5 2 -10 -4 -10 -5 0
-13 5 -16 10 -3 6 -2 10 4 10 5 0 13 -4 16 -10z m-71 -139 c3 -5 -2 -15 -11
-22 -14 -12 -15 -12 -11 1 3 8 -2 24 -11 34 -15 18 -15 18 6 7 12 -6 24 -15
27 -20z m846 -117 c0 -2 -7 -4 -15 -4 -8 0 -15 4 -15 10 0 5 7 7 15 4 8 -4 15
-8 15 -10z m710 -13 c0 -5 -7 -14 -15 -21 -13 -10 -15 -9 -15 9 0 12 6 21 15
21 8 0 15 -4 15 -9z m-465 -21 c3 -5 1 -10 -4 -10 -6 0 -11 5 -11 10 0 6 2 10
4 10 3 0 8 -4 11 -10z m510 0 c3 -5 -1 -10 -9 -10 -9 0 -16 5 -16 10 0 6 4 10
9 10 6 0 13 -4 16 -10z m-758 -22 c-3 -8 -6 -5 -6 6 -1 11 2 17 5 13 3 -3 4
-12 1 -19z m188 2 c3 -5 -1 -10 -9 -10 -9 0 -16 5 -16 10 0 6 4 10 9 10 6 0
13 -4 16 -10z m115 -10 c0 -5 -5 -10 -11 -10 -5 0 -7 5 -4 10 3 6 8 10 11 10
2 0 4 -4 4 -10z m230 -10 c0 -5 -2 -10 -4 -10 -3 0 -8 5 -11 10 -3 6 -1 10 4
10 6 0 11 -4 11 -10z m-263 -40 c3 -16 9 -30 14 -30 5 0 -1 -11 -13 -25 -16
-19 -24 -22 -35 -14 -16 14 -17 39 -2 39 7 0 8 11 4 30 -5 24 -3 30 9 30 10 0
19 -12 23 -30z m63 20 c0 -5 -7 -10 -16 -10 -8 0 -12 5 -9 10 3 6 10 10 16 10
5 0 9 -4 9 -10z m-15 -30 c3 -5 1 -10 -4 -10 -6 0 -11 5 -11 10 0 6 2 10 4 10
3 0 8 -4 11 -10z m335 -43 c31 -25 64 -79 74 -120 6 -23 3 -29 -21 -38 -21 -8
-29 -7 -32 2 -2 7 -16 24 -30 37 -23 21 -26 22 -29 7 -2 -10 2 -37 8 -62 10
-33 10 -47 1 -56 -8 -8 -11 -7 -11 7 0 11 -6 16 -17 14 -23 -4 -30 -38 -9 -38
9 0 16 -7 16 -15 0 -18 36 -20 47 -2 4 6 9 23 9 37 3 53 2 51 34 35 28 -15 62
-55 66 -79 1 -6 3 -18 5 -26 3 -9 -4 -16 -17 -18 -12 -2 -27 -14 -35 -28 -7
-14 -21 -30 -31 -35 -12 -7 -16 -17 -13 -32 5 -20 2 -22 -45 -24 -47 -1 -66 9
-37 20 6 3 2 6 -11 6 -12 1 -26 9 -29 19 -8 20 -53 83 -70 97 -18 14 4 55 44
80 39 25 41 35 7 35 -15 0 -32 7 -39 16 -9 14 -16 14 -33 5 -14 -7 -22 -8 -22
-2 0 6 -7 8 -15 5 -8 -4 -15 -1 -15 5 0 6 7 11 16 11 13 0 14 3 5 14 -10 12
-8 13 9 9 19 -5 20 -3 14 22 -4 18 -2 30 6 35 7 5 14 19 15 32 2 18 8 23 28
23 26 -1 36 9 20 18 -5 2 -3 3 3 1 6 -1 26 1 45 6 41 10 53 7 89 -23z m-450
-71 c0 -2 -7 -7 -16 -10 -8 -3 -12 -2 -9 4 6 10 25 14 25 6z m-37 -53 c-7 -2
-21 -2 -30 0 -10 3 -4 5 12 5 17 0 24 -2 18 -5z m-28 -23 c3 -5 -1 -10 -10
-10 -9 0 -13 5 -10 10 3 6 8 10 10 10 2 0 7 -4 10 -10z m55 -23 c10 -4 8 -6
-7 -6 -16 -1 -23 -7 -23 -22 0 -11 -4 -17 -10 -14 -5 3 -10 14 -10 24 0 20 22
44 29 32 3 -4 13 -11 21 -14z m-73 -18 c6 -6 9 -18 6 -25 -3 -8 0 -14 7 -14 6
0 8 -4 5 -10 -11 -17 -44 -11 -55 10 -9 16 -8 20 7 21 11 0 13 3 6 6 -7 2 -13
9 -13 14 0 13 24 11 37 -2z m347 -21 c-26 -21 -40 -19 -31 5 3 8 17 15 31 15
l26 0 -26 -20z m-299 -60 c-8 -21 -21 -34 -35 -36 -14 -2 -20 0 -15 7 3 6 11
9 16 6 5 -4 11 1 14 9 3 9 7 23 10 31 2 8 9 15 14 15 6 0 4 -14 -4 -32z m505
-225 c0 -9 -8 -11 -23 -8 -15 4 -28 1 -36 -9 -8 -9 -26 -16 -42 -16 -15 0 -40
-5 -55 -10 -23 -9 -25 -8 -15 4 6 7 32 19 56 25 25 6 45 15 45 20 0 5 16 9 35
8 22 -1 35 -6 35 -14z m51 -10 c13 -16 12 -17 -3 -4 -17 13 -22 21 -14 21 2 0
10 -8 17 -17z m85 -44 c10 -16 -21 -9 -46 11 l-25 20 33 -11 c17 -6 35 -15 38
-20z m85 -19 c10 -6 19 -18 19 -28 -1 -15 -2 -15 -13 -1 -7 8 -21 21 -32 27
-25 14 -1 16 26 2z m-891 -59 c0 -6 -4 -13 -10 -16 -5 -3 -10 1 -10 9 0 9 5
16 10 16 6 0 10 -4 10 -9z m386 -68 c-11 -11 -17 4 -9 23 7 18 8 18 11 1 2
-10 1 -21 -2 -24z m-56 -13 c-6 -11 -15 -20 -19 -20 -5 0 -7 9 -4 20 3 11 12
20 20 20 11 0 11 -4 3 -20z m-30 -140 c0 -5 -13 -10 -29 -10 -17 0 -33 5 -36
10 -4 6 8 10 29 10 20 0 36 -4 36 -10z m70 -65 c0 -8 -7 -15 -15 -15 -26 0
-18 20 13 29 1 1 2 -6 2 -14z m-10 -55 c-19 -13 -30 -13 -30 0 0 6 10 10 23
10 18 0 19 -2 7 -10z m2110 -180 c0 -5 -4 -10 -10 -10 -5 0 -10 5 -10 10 0 6
5 10 10 10 6 0 10 -4 10 -10z"/>
<path d="M1540 3996 c0 -9 5 -16 10 -16 6 0 10 4 10 9 0 6 -4 13 -10 16 -5 3
-10 -1 -10 -9z"/>
<path d="M1160 3509 c34 -33 50 -37 50 -13 0 10 6 14 15 10 8 -3 15 -1 15 4 0
6 -6 10 -12 10 -7 1 -32 5 -56 9 l-42 8 30 -28z"/>
<path d="M1130 3496 c0 -2 7 -9 15 -16 12 -10 15 -10 15 4 0 9 -7 16 -15 16
-8 0 -15 -2 -15 -4z"/>
<path d="M1110 3445 c10 -12 10 -15 -4 -15 -20 0 -21 -16 -1 -24 8 -3 15 -10
15 -16 0 -5 -7 -10 -15 -10 -18 0 -19 -12 -4 -27 7 -7 -2 -12 -31 -17 -36 -6
-40 -9 -30 -21 10 -12 9 -15 -8 -15 -30 0 -35 -15 -12 -35 19 -18 29 -62 11
-51 -16 10 -22 -27 -7 -42 12 -13 14 -12 13 4 -2 20 32 33 42 15 5 -7 17 -7
36 -2 17 5 24 10 18 10 -18 1 -16 21 2 21 20 0 19 20 -2 36 -17 12 -16 13 5
14 26 0 28 17 7 47 -10 15 -12 24 -4 28 21 14 27 49 12 67 -14 16 -14 18 1 24
24 9 9 24 -26 24 -26 0 -29 -2 -18 -15z m10 -140 c11 -13 10 -14 -4 -9 -9 3
-16 10 -16 15 0 13 6 11 20 -6z m-40 -60 c7 -8 10 -15 7 -15 -3 0 -12 -3 -20
-6 -9 -3 -16 3 -20 15 -6 25 14 28 33 6z"/>
<path d="M1055 3360 c3 -5 10 -10 16 -10 5 0 9 5 9 10 0 6 -7 10 -16 10 -8 0
-12 -4 -9 -10z"/>
<path d="M1056 3166 c8 -20 -12 -29 -36 -16 -16 8 -20 8 -20 -4 0 -8 5 -18 10
-21 15 -9 2 -25 -14 -19 -8 3 -17 1 -21 -5 -3 -6 -16 -11 -28 -12 -21 0 -21
-1 -2 -8 11 -5 24 -6 28 -4 4 3 14 0 22 -7 9 -7 15 -8 20 0 3 5 16 10 28 10
15 0 18 3 9 9 -18 11 10 34 32 25 20 -8 21 0 0 20 -10 10 -11 16 -3 16 9 0 8
4 -1 15 -16 19 -31 20 -24 1z"/>
<path d="M3777 3160 c-70 -21 -174 -152 -138 -175 5 -3 26 -39 47 -80 21 -41
43 -75 51 -75 7 0 13 -7 13 -15 0 -7 8 -19 18 -24 9 -6 11 -11 5 -11 -25 0
-12 -20 13 -20 29 0 120 82 110 98 -3 6 -1 12 5 14 11 4 23 85 21 144 -1 36
-33 105 -62 134 -21 21 -38 23 -83 10z m93 -152 c0 -44 -15 -67 -32 -50 -9 9
-9 12 5 12 13 0 17 9 17 35 0 19 2 35 5 35 3 0 5 -15 5 -32z"/>
<path d="M868 3013 c7 -3 16 -2 19 1 4 3 -2 6 -13 5 -11 0 -14 -3 -6 -6z"/>
<path d="M1568 2947 c-26 -21 -66 -97 -51 -97 4 0 2 -5 -5 -12 -15 -15 -16
-48 -1 -48 6 0 9 -12 8 -27 -2 -19 10 -47 35 -85 22 -32 42 -58 47 -58 4 0 10
-9 14 -20 5 -15 13 -18 43 -15 82 8 115 37 126 107 3 21 17 61 31 90 14 28 25
55 25 58 0 13 -115 98 -154 114 -52 22 -86 20 -118 -7z m10 -120 c-2 -41 4
-66 23 -105 14 -28 22 -49 17 -46 -16 10 -68 109 -68 131 0 21 19 73 27 73 2
0 2 -24 1 -53z"/>
<path d="M898 2953 c7 -3 16 -2 19 1 4 3 -2 6 -13 5 -11 0 -14 -3 -6 -6z"/>
<path d="M894 2912 c4 -7 -3 -16 -17 -23 -21 -10 -23 -14 -13 -35 12 -27 46
-40 73 -29 17 7 16 8 -2 15 -19 8 -19 8 4 17 20 8 21 11 8 16 -10 4 -14 13
-11 22 3 8 2 15 -4 15 -6 0 -18 3 -28 7 -12 4 -15 3 -10 -5z m6 -47 c14 -16
10 -18 -14 -9 -9 3 -16 10 -16 15 0 14 16 11 30 -6z"/>
<path d="M860 2806 c37 -20 90 -30 90 -17 0 6 -15 11 -34 11 -19 0 -38 5 -41
10 -3 6 -14 10 -23 10 -12 -1 -10 -5 8 -14z"/>
<path d="M920 2710 c13 -9 13 -10 0 -10 -8 0 0 -8 18 -16 40 -20 41 -32 3 -26
-16 2 -32 -1 -35 -7 -4 -6 -2 -11 4 -11 7 0 9 -8 5 -21 -5 -13 -2 -25 6 -30
26 -15 -2 -23 -44 -12 -43 12 -65 9 -31 -3 28 -10 51 -37 46 -53 -14 -43 -76
-70 -84 -37 -3 12 -5 12 -16 0 -11 -12 -9 -16 13 -26 14 -6 25 -15 25 -20 0
-4 14 -8 30 -8 17 0 30 -4 30 -10 0 -5 9 -10 21 -10 12 0 17 -4 14 -11 -4 -6
-19 -7 -36 -4 -24 5 -28 4 -23 -9 3 -9 17 -19 30 -22 30 -8 21 -24 -14 -25
-19 0 -22 -2 -11 -7 26 -11 6 -52 -25 -52 -22 0 -23 2 -16 35 7 29 5 35 -9 35
-9 0 -26 3 -38 6 -34 9 -30 -24 5 -38 l27 -11 -25 -7 c-21 -7 -22 -8 -5 -10
11 -1 15 -4 9 -6 -7 -3 -10 -14 -7 -25 4 -15 2 -18 -13 -13 -17 6 -17 5 1 -9
11 -8 46 -18 78 -22 68 -9 66 -25 -4 -25 -27 0 -49 -4 -49 -9 0 -12 27 -22 44
-15 8 3 17 1 21 -5 4 -7 -5 -11 -22 -11 -15 0 -34 -4 -42 -9 -18 -11 8 -26 62
-36 59 -11 53 -23 -10 -20 -49 2 -83 -9 -83 -27 0 -2 36 -2 80 0 54 3 80 1 80
-7 0 -6 -20 -12 -47 -13 -27 0 -52 -2 -58 -3 -5 -2 -23 -4 -40 -5 -24 -1 -26
-3 -11 -9 17 -7 17 -8 2 -23 -9 -9 -16 -20 -16 -24 0 -12 35 -33 56 -34 25 0
39 -17 39 -45 0 -16 -8 -21 -42 -23 -68 -5 -50 -22 25 -23 37 -1 58 -3 47 -6
-46 -11 -39 -24 10 -18 l50 6 -36 -20 c-32 -18 -76 -27 -149 -31 -24 -2 -23
-2 5 -11 17 -5 45 -10 62 -11 36 -2 32 -14 -7 -21 -23 -4 -23 -5 8 -12 21 -5
29 -11 22 -15 -9 -5 -9 -9 -1 -14 6 -4 11 -4 11 -1 0 4 7 -1 16 -9 8 -9 31
-16 50 -16 19 0 34 -4 34 -9 0 -6 -29 -7 -72 -4 -53 5 -69 3 -64 -5 4 -7 17
-12 29 -12 21 -1 21 -1 4 -14 -17 -13 -12 -16 45 -29 35 -8 53 -16 41 -16 -12
-1 -25 -5 -28 -11 -3 -5 -16 -10 -28 -11 -21 0 -21 -1 -2 -9 11 -5 55 -19 97
-31 56 -16 75 -25 71 -35 -4 -10 0 -12 11 -8 9 4 16 1 16 -6 0 -8 -10 -9 -31
-5 -21 5 -29 4 -25 -3 3 -6 19 -13 35 -17 66 -14 55 -63 -11 -50 l-33 6 25
-20 c14 -11 40 -24 59 -27 19 -4 46 -13 60 -20 14 -8 32 -14 39 -14 6 0 12 -4
12 -10 0 -5 -8 -10 -18 -10 -10 0 -21 -3 -25 -6 -11 -12 43 -52 88 -64 40 -11
62 -30 35 -30 -19 0 -10 -21 15 -32 13 -6 22 -14 20 -18 -2 -4 10 -17 26 -29
25 -18 38 -22 67 -16 21 3 49 7 65 7 24 1 41 18 17 18 -5 0 -10 3 -10 8 0 4
19 6 43 5 l42 -3 -30 14 -30 15 30 -6 c17 -3 36 -10 43 -16 7 -5 12 -6 12 0 0
5 -6 15 -12 22 -11 11 -9 12 7 8 18 -5 133 -27 142 -27 2 0 2 3 2 8 -5 27 2
34 29 27 15 -4 38 -9 52 -10 14 -2 52 -8 85 -13 33 -6 99 -13 148 -16 70 -4
87 -2 87 9 0 7 10 17 23 21 12 4 33 15 47 26 l25 20 -30 -6 c-17 -3 -24 -3
-17 0 6 3 12 14 12 25 0 16 -7 19 -43 19 -24 0 -49 -6 -56 -12 -9 -10 -61 -13
-191 -13 -130 0 -182 -3 -191 -12 -10 -10 -10 -13 -1 -13 7 0 12 -5 12 -12 0
-9 -3 -9 -12 0 -7 7 -25 12 -40 12 -47 0 -108 23 -105 40 1 10 -8 16 -30 18
-18 2 -33 7 -33 13 0 5 -8 8 -17 7 -34 -3 -54 2 -49 11 4 5 -12 12 -34 16 -30
5 -40 11 -38 23 2 13 -4 16 -32 15 -34 -3 -34 -2 -10 9 l25 12 -27 4 c-29 4
-37 19 -15 28 20 7 16 34 -4 34 -13 0 -16 5 -12 16 5 14 1 15 -25 9 -28 -6
-32 -4 -32 13 0 11 -7 22 -15 26 -9 3 -12 12 -9 21 4 10 -2 24 -15 36 -14 13
-21 31 -20 47 3 45 0 62 -14 62 -7 0 -14 9 -15 20 -4 44 -6 49 -21 55 -12 5
-9 10 14 20 20 9 24 14 12 14 -10 1 -16 5 -12 10 3 5 -4 13 -15 16 l-21 7 21
18 22 19 -31 16 c-32 16 -42 45 -16 45 26 0 16 19 -12 22 -31 4 -44 44 -15 51
13 4 11 5 -5 6 -16 1 -23 7 -23 21 0 11 -4 20 -10 20 -5 0 -10 5 -10 10 0 6 6
10 13 10 7 0 20 9 29 20 17 19 16 19 -18 26 -45 8 -54 24 -14 24 27 0 30 2 20
19 -5 11 -20 21 -32 24 -23 4 -23 4 2 14 l25 10 -23 7 c-28 9 -28 17 2 45 19
18 31 22 53 17 28 -7 28 -7 -4 13 -18 11 -44 23 -58 27 -34 8 -32 22 3 17 24
-4 25 -3 11 9 -14 12 -14 15 -2 27 14 13 26 12 108 -5 29 -7 30 -7 12 13 -14
16 -26 19 -61 16 -26 -3 -46 -1 -50 6 -5 7 2 9 22 5 38 -8 49 9 17 26 -27 14
-35 33 -10 24 30 -12 14 5 -31 31 -53 31 -52 46 1 20 46 -21 54 -15 16 14 -29
23 -32 46 -7 64 7 4 2 9 -11 13 -13 4 -24 10 -24 15 -3 20 -5 25 -13 38 -5 8
-4 16 5 22 9 6 10 9 2 9 -6 0 -20 14 -30 30 -13 23 -24 30 -48 30 -23 0 -27
-3 -15 -10z m105 -160 c3 -5 -1 -10 -9 -10 -8 0 -18 5 -21 10 -3 6 1 10 9 10
8 0 18 -4 21 -10z m2 -96 c-3 -3 -12 -4 -19 -1 -8 3 -5 6 6 6 11 1 17 -2 13
-5z m-134 -195 c-6 -6 -9 -18 -6 -25 3 -9 -2 -14 -16 -14 -12 0 -21 5 -21 10
0 6 -9 10 -19 10 -34 0 -33 19 1 23 67 8 73 8 61 -4z m20 -386 c-7 -2 -21 -2
-30 0 -10 3 -4 5 12 5 17 0 24 -2 18 -5z m34 -169 c-3 -3 -12 -4 -19 -1 -8 3
-5 6 6 6 11 1 17 -2 13 -5z m-12 -74 c-3 -5 -18 -10 -33 -10 -21 0 -24 2 -12
10 20 13 53 13 45 0z m312 -356 c-3 -3 -12 -4 -19 -1 -8 3 -5 6 6 6 11 1 17
-2 13 -5z"/>
<path d="M780 2523 c-24 -14 -23 -14 25 -9 59 7 86 26 35 25 -19 -1 -46 -8
-60 -16z"/>
<path d="M2370 2510 c0 -5 7 -10 15 -10 8 0 15 5 15 10 0 6 -7 10 -15 10 -8 0
-15 -4 -15 -10z"/>
<path d="M4334 2438 l-19 -23 23 19 c12 11 22 21 22 23 0 8 -8 2 -26 -19z"/>
<path d="M805 1900 c3 -5 11 -10 16 -10 6 0 7 5 4 10 -3 6 -11 10 -16 10 -6 0
-7 -4 -4 -10z"/>
<path d="M790 1820 c0 -5 7 -7 15 -4 8 4 15 8 15 10 0 2 -7 4 -15 4 -8 0 -15
-4 -15 -10z"/>
<path d="M4066 1774 c-9 -24 -7 -28 9 -14 17 14 20 30 6 30 -5 0 -12 -7 -15
-16z"/>
<path d="M4719 1774 c-11 -13 -9 -14 17 -8 40 9 54 24 22 24 -14 0 -31 -7 -39
-16z"/>
<path d="M4225 1751 c-3 -5 -1 -12 5 -16 5 -3 10 1 10 9 0 18 -6 21 -15 7z"/>
<path d="M4780 1750 c-9 -6 -10 -10 -3 -10 6 0 15 5 18 10 8 12 4 12 -15 0z"/>
<path d="M4745 1680 c-3 -5 1 -10 9 -10 8 0 18 5 21 10 3 6 -1 10 -9 10 -8 0
-18 -4 -21 -10z"/>
<path d="M903 1353 c9 -2 25 -2 35 0 9 3 1 5 -18 5 -19 0 -27 -2 -17 -5z"/>
<path d="M2280 1270 c-13 -8 -13 -10 2 -10 9 0 20 5 23 10 8 13 -5 13 -25 0z"/>
<path d="M2335 1260 c-9 -27 1 -37 23 -24 22 14 22 38 0 42 -10 2 -19 -5 -23
-18z"/>
<path d="M1836 1145 c10 -8 33 -14 49 -14 l30 1 -35 13 c-49 19 -69 19 -44 0z"/>
<path d="M2255 1150 c11 -5 34 -9 50 -9 26 0 27 2 10 9 -11 5 -33 9 -50 9 -26
0 -27 -2 -10 -9z"/>
<path d="M2175 1140 c28 -12 37 -12 30 0 -3 6 -16 10 -28 9 -21 0 -21 -1 -2
-9z"/>
<path d="M1323 1093 c9 -2 23 -2 30 0 6 3 -1 5 -18 5 -16 0 -22 -2 -12 -5z"/>
<path d="M1338 1063 c7 -3 16 -2 19 1 4 3 -2 6 -13 5 -11 0 -14 -3 -6 -6z"/>
</g>
</svg>
